# xmcd
#
# Track frame offsets: 
#        150
#        14065
#        84639
#        97395
#        113906
#        128232
#        141534
#        150773
#        160484
#        170847
#        181998
#        204556
#        210594
#        218502
#        234545
#        242607
#        267907
#        276102
#        290755
#
# Disc length: 4101 seconds
#
# Revision: 1
# Processed by: cddbd v1.5.2PL0 Copyright (c) Steve Scherf et al.
# Submitted via: ExactAudioCopyFreeDBPlugin 1.0
#
DISCID=23100313
DTITLE=Missippi John Hurt - Discovery
DYEAR=2011
DGENRE=Pre-Blues and Songster
TTITLE0=Cow Hookin' Blues
TTITLE1=Interview - John and Jessie Hurt by Tom Hoskins
TTITLE2=Nobody's Business
TTITLE3=Casey Jones
TTITLE4=Stack O'Lee
TTITLE5=Richland Woman Blues
TTITLE6=Coffee Blues
TTITLE7=Do Lord, Remember Me
TTITLE8=Take My Hand
TTITLE9=Candy Man
TTITLE10=Waiting For You
TTITLE11=Conversation - A Song For Mr. Clark
TTITLE12=Got The Blues
TTITLE13=Let The Mermaids Flirt With Me
TTITLE14=Ain't Nobody But You
TTITLE15=Pallet On The Floor
TTITLE16=Spike Driver Blues
TTITLE17=Preaching On The Old Campground -Glory Glory
TTITLE18=Louis Collins-End Of Session
EXTD=
EXTT0=
EXTT1=
EXTT2=
EXTT3=
EXTT4=
EXTT5=
EXTT6=
EXTT7=
EXTT8=
EXTT9=
EXTT10=
EXTT11=
EXTT12=
EXTT13=
EXTT14=
EXTT15=
EXTT16=
EXTT17=
EXTT18=
PLAYORDER=
